<?xml version="1.0" encoding="iso-8859-1"?>
<!-- Generator: Adobe Illustrator 16.0.0, SVG Export Plug-In . SVG Version: 6.00 Build 0)  -->
<!DOCTYPE svg PUBLIC "-//W3C//DTD SVG 1.1//EN" "http://www.w3.org/Graphics/SVG/1.1/DTD/svg11.dtd">
<svg version="1.1" id="Capa_1" xmlns="http://www.w3.org/2000/svg" xmlns:xlink="http://www.w3.org/1999/xlink" x="0px" y="0px"
	 width="460.47px" height="460.47px" viewBox="0 0 460.47 460.47" style="enable-background:new 0 0 460.47 460.47;"
	 xml:space="preserve">
<g>
	<g id="Layer_7_7_">
		<path d="M183.997,254.863c-13.606,0-24.639-11.037-24.639-24.629c0-13.612,11.033-24.633,24.639-24.633
			c13.604,0,24.632,11.028,24.632,24.633C208.633,243.837,197.6,254.863,183.997,254.863z M460.47,394.366h-193.35
			c-24.974,12.685-53.204,19.865-83.124,19.865c-29.922,0-58.152-7.181-83.125-19.865h-58.51v-46.692
			C15.907,315.799,0,274.88,0,230.234s15.907-85.569,42.361-117.441V66.47h57.787c25.153-12.911,53.634-20.232,83.848-20.232
			c30.212,0,58.697,7.329,83.849,20.232h192.617L460.47,394.366L460.47,394.366z M55.595,79.705v18.802
			c7.027-6.854,14.603-13.141,22.654-18.802H55.595z M55.595,205.607c5.956-24.789,17.656-47.372,33.632-66.231
			c-1.797-1.805-3.609-3.603-5.407-5.409c-11.789,13.814-21.354,29.546-28.229,46.654L55.595,205.607L55.595,205.607z
			 M70.219,243.109h7.634c0-32.146,11.379-61.675,30.312-84.789l-5.423-5.423C82.441,177.418,70.219,208.863,70.219,243.109z
			 M183.997,303.203c40.297,0,72.969-32.679,72.969-72.969c0-40.299-32.676-72.973-72.969-72.973
			c-40.294,0-72.972,32.674-72.972,72.973C111.025,270.524,143.697,303.203,183.997,303.203z M286.896,333.2
			c25.101-29.417,40.308-67.524,40.308-109.142h-7.629c0,39.511-14.353,75.714-38.085,103.735
			C283.309,329.589,285.102,331.405,286.896,333.2z M300.5,224.059h-7.629c0,32.141-11.382,61.678-30.312,84.791l5.427,5.429
			C288.278,289.753,300.5,258.311,300.5,224.059z M78.773,381.146c-8.245-5.767-15.992-12.187-23.178-19.186v19.186H78.773z
			 M447.248,79.705H289.744c47.298,33.297,78.25,88.282,78.25,150.53c0,62.462-31.171,117.642-78.777,150.912h158.021V79.705
			H447.248z M382.487,322.321c3.65,0,7.045,1.024,10.038,2.66l-0.489-0.433l21.846-24.597V152.487h-9.557v-48.52h32.347v48.52
			h-9.561V304.98l-25.191,28.351l-2.037-1.8c2.331,3.387,3.699,7.491,3.699,11.907c0,11.64-9.459,21.118-21.109,21.118
			c-11.649,0-21.113-9.469-21.113-21.118S370.847,322.321,382.487,322.321z M382.487,335.548c-4.338,0-7.872,3.535-7.872,7.882
			c0,4.337,3.534,7.872,7.872,7.872c4.342,0,7.882-3.535,7.882-7.872C390.369,339.083,386.829,335.548,382.487,335.548z"/>
	</g>
</g>
<g>
</g>
<g>
</g>
<g>
</g>
<g>
</g>
<g>
</g>
<g>
</g>
<g>
</g>
<g>
</g>
<g>
</g>
<g>
</g>
<g>
</g>
<g>
</g>
<g>
</g>
<g>
</g>
<g>
</g>
</svg>
