<?xml version="1.0" encoding="utf-8"?>
<!-- Generator: Adobe Illustrator 13.0.2, SVG Export Plug-In . SVG Version: 6.00 Build 14948)  -->
<!DOCTYPE svg PUBLIC "-//W3C//DTD SVG 1.1//EN" "http://www.w3.org/Graphics/SVG/1.1/DTD/svg11.dtd">
<svg version="1.1" id="Layer_1" xmlns="http://www.w3.org/2000/svg" xmlns:xlink="http://www.w3.org/1999/xlink" x="0px" y="0px"
	 width="800px" height="150px" viewBox="0 0 800 150" enable-background="new 0 0 800 150" xml:space="preserve">
<g>
	<g>
		<path d="M233.413,18.805l-8.425,23.438c-1.218-0.592-2.217-0.885-3-0.881c-1.498,0.008-3.026,0.692-4.583,2.052
			c-1.556,1.359-2.674,2.991-3.355,4.899c-0.581,1.629-0.732,3.687-0.456,6.177l0.361,3.195c0.656,5.746,0.024,11.282-1.888,16.606
			c-2.787,7.764-7.403,14.311-13.843,19.654c-6.416,5.326-12.864,7.984-19.359,7.992c-3.119,0.004-5.903-0.855-8.354-2.58
			l7.998-22.926c1.356,1.438,2.756,2.15,4.198,2.147c1.7-0.005,3.327-0.601,4.884-1.792c1.558-1.191,2.655-2.688,3.288-4.486
			c0.413-1.172,0.399-3.734-0.043-7.689c-0.726-6.285,0.018-12.598,2.238-18.943c2.69-7.684,7.257-14.346,13.708-19.972
			c6.478-5.65,12.856-8.502,19.119-8.542C228.658,17.139,231.162,17.689,233.413,18.805z"/>
		<path d="M221.897,121.107h-17.832l17.415-48.133c3.252-8.989,7.861-16.357,13.832-22.08c3.446-3.308,7.265-5.95,11.454-7.92
			c4.196-1.974,8.127-2.971,11.792-2.989c7.299-0.035,12.336,2.936,15.1,8.897c2.756,5.945,2.502,13.226-0.742,21.821
			c-3.139,8.315-8.292,15.465-15.446,21.458c-7.125,5.971-14.014,8.947-20.685,8.957c-1.09,0.001-2.643-0.133-4.659-0.398
			l8.834-23.99c0.952,1.443,2.172,2.162,3.658,2.158c1.873-0.004,3.792-0.85,5.758-2.533c1.968-1.689,3.384-3.688,4.245-6.007
			c0.863-2.319,0.899-4.295,0.112-5.925c-0.791-1.632-2.16-2.446-4.109-2.439c-4.675,0.017-8.453,3.946-11.324,11.761
			L221.897,121.107z"/>
		<path d="M310.621,40.934l-22.713,58.907l-18.085,0.024l22.355-58.842L310.621,40.934z M311.771,13.996
			c2.521-0.016,4.284,1.061,5.287,3.227c1.002,2.164,0.931,4.729-0.21,7.688c-1.216,3.156-3.081,5.748-5.59,7.772
			c-2.506,2.024-5.109,3.041-7.809,3.055c-2.7,0.014-4.531-0.979-5.492-2.984c-0.964-2.005-0.846-4.583,0.351-7.736
			c1.123-2.956,3.016-5.528,5.68-7.713C306.655,15.116,309.25,14.012,311.771,13.996z"/>
		<path d="M341.769,99.771l-18.202,0.022l13.119-33.073c1.351-3.405,0.862-5.107-1.467-5.1c-2.297,0.008-4.118,1.718-5.461,5.123
			l-13.043,33.061l-18.148,0.021l12.681-32.607c3.001-7.719,7.659-14.26,13.979-19.607c6.343-5.367,12.612-8.075,18.791-8.104
			c7.076-0.035,11.507,3.055,13.282,9.251c1.391,4.825,0.356,11.532-3.091,20.098L341.769,99.771z"/>
		<path d="M397.414,41.963l-23.817,57.766l-19.833,0.026l33.111-81.534l26.562-0.164c11.677-0.072,19.473,3.104,23.367,9.512
			c4.586,7.64,4.082,17.992-1.459,31.001c-5.264,12.35-12.826,22.368-22.679,30.091c-9.799,7.679-19.825,11.511-30.113,11.522
			c-1.207,0.002-3.149-0.074-5.825-0.227l9.737-23.559l3.206-0.01c11.684-0.031,19.998-5.925,24.959-17.743
			c4.693-11.182,1.236-16.774-10.383-16.719L397.414,41.963z"/>
		<path d="M475.65,38.864c7.122-0.036,11.872,3.027,14.24,9.17c2.361,6.124,1.645,13.451-2.132,21.958
			c-3.81,8.584-9.583,15.863-17.311,21.857c-7.695,5.969-15.101,8.947-22.24,8.957c-7.134,0.008-11.942-2.961-14.437-8.922
			c-2.504-5.979-1.943-13.217,1.699-21.734c3.73-8.72,9.448-16.104,17.166-22.136C460.386,41.958,468.064,38.9,475.65,38.864z
			 M465.434,61.158c-2,0.007-4.076,0.882-6.229,2.625c-2.15,1.739-3.77,3.864-4.855,6.37c-1.067,2.463-1.275,4.565-0.623,6.305
			c0.65,1.737,1.955,2.604,3.908,2.599c1.988-0.005,4.066-0.88,6.238-2.625c2.174-1.748,3.802-3.855,4.881-6.322
			c1.099-2.509,1.33-4.63,0.689-6.362C468.804,62.014,467.467,61.15,465.434,61.158z"/>
		<path d="M525.13,72.33l19.027-0.892c-4.505,8.606-10.438,15.647-17.79,21.143c-7.324,5.476-14.421,8.207-21.312,8.215
			c-7.281,0.009-12.078-2.979-14.4-8.979c-2.33-6.021-1.54-13.432,2.392-22.256c3.756-8.433,9.551-15.692,17.395-21.765
			c7.878-6.099,15.442-9.176,22.676-9.211c6.325-0.031,10.812,2.343,13.454,7.112c2.635,4.759,2.838,10.823,0.623,18.178
			l-19.479,0.906c-0.477-2.559-1.974-3.837-4.491-3.827c-2.146,0.008-4.29,0.856-6.426,2.544c-2.133,1.687-3.774,3.809-4.928,6.364
			c-1.169,2.592-1.423,4.759-0.761,6.505c0.659,1.743,2.073,2.612,4.241,2.608C518.522,78.965,521.779,76.754,525.13,72.33z"/>
		<path d="M598.547,40.4l-11.34,23.938c-2.668,0.01-4.781,0.608-6.336,1.796c-1.554,1.188-3.287,3.525-5.197,7.007
			c-6.3,11.514-13.847,19.596-22.654,24.295c-4.637,2.443-10.162,3.666-16.578,3.674l-2.593,0.004l10.854-23.469l0.854-0.002
			c3.014-0.007,5.515-0.759,7.499-2.254c1.986-1.5,3.956-4.131,5.908-7.893c3.13-6.142,5.624-10.473,7.483-12.979
			c1.86-2.51,4.435-5.006,7.725-7.489c5.766-4.366,11.971-6.57,18.604-6.602L598.547,40.4z"/>
	</g>
	<g>
		<g id="Layer_7_7_">
			<path d="M66.349,75.575c-4.157,0-7.528-3.371-7.528-7.525c0-4.159,3.371-7.526,7.528-7.526s7.526,3.369,7.526,7.526
				C73.877,72.206,70.505,75.575,66.349,75.575z M150.826,118.2H91.748c-7.632,3.876-16.256,6.07-25.399,6.07
				c-9.142,0-17.769-2.194-25.399-6.07H23.072v-14.266c-8.083-9.739-12.943-22.242-12.943-35.885
				c0-13.641,4.86-26.146,12.943-35.884V18.011h17.657c7.686-3.945,16.387-6.182,25.62-6.182c9.231,0,17.935,2.24,25.62,6.182
				h58.855L150.826,118.2L150.826,118.2z M27.116,22.056V27.8c2.146-2.094,4.462-4.015,6.921-5.745H27.116z M27.116,60.525
				c1.82-7.574,5.395-14.475,10.276-20.237c-0.549-0.552-1.103-1.101-1.653-1.652c-3.602,4.221-6.524,9.028-8.625,14.255
				L27.116,60.525L27.116,60.525z M31.584,71.983h2.333c0-9.821,3.477-18.844,9.261-25.906l-1.657-1.657
				C35.319,51.912,31.584,61.52,31.584,71.983z M66.349,90.346c12.312,0,22.295-9.985,22.295-22.296
				c0-12.313-9.983-22.297-22.295-22.297c-12.312,0-22.297,9.984-22.297,22.297C44.052,80.36,54.036,90.346,66.349,90.346z
				 M97.791,99.512c7.669-8.987,12.316-20.632,12.316-33.349h-2.331c0,12.073-4.385,23.134-11.638,31.696
				C96.694,98.407,97.242,98.963,97.791,99.512z M101.947,66.164h-2.331c0,9.821-3.479,18.844-9.263,25.909l1.658,1.658
				C98.212,86.237,101.947,76.63,101.947,66.164z M34.198,114.162c-2.519-1.761-4.887-3.723-7.082-5.862v5.862H34.198z
				 M146.787,22.056H98.661c14.452,10.173,23.911,26.975,23.911,45.995c0,19.084-9.526,35.946-24.072,46.112h48.283V22.056H146.787z
				 M126.998,96.188c1.116,0,2.153,0.313,3.068,0.812l-0.15-0.132l6.675-7.516V44.294h-2.921V29.468h9.884v14.826h-2.921v46.594
				l-7.698,8.664l-0.622-0.551c0.712,1.034,1.13,2.288,1.13,3.639c0,3.555-2.89,6.451-6.45,6.451c-3.56,0-6.451-2.894-6.451-6.451
				C120.543,99.08,123.442,96.188,126.998,96.188z M126.998,100.229c-1.326,0-2.406,1.081-2.406,2.409
				c0,1.326,1.08,2.404,2.406,2.404c1.326,0,2.409-1.078,2.409-2.404C129.407,101.31,128.324,100.229,126.998,100.229z"/>
		</g>
	</g>
</g>
</svg>
